<svg xmlns="http://www.w3.org/2000/svg" xmlns:xlink="http://www.w3.org/1999/xlink" width="500" zoomAndPan="magnify" viewBox="0 0 375 374.999991" height="500" preserveAspectRatio="xMidYMid meet" version="1.0"><defs><g/></defs><g fill="#000000" fill-opacity="1"><g transform="translate(20.910999, 195.44019)"><g><path d="M 0.0625 0 L 11.625 -22.609375 L 19.03125 -22.609375 L 30.375 0 L 23.734375 0 L 21.5625 -4.453125 L 8.859375 -4.453125 L 6.703125 0 Z M 10.296875 -8.296875 L 20.140625 -8.296875 L 15.28125 -18.484375 L 15.21875 -18.484375 Z M 10.296875 -8.296875 "/></g></g></g><g fill="#000000" fill-opacity="1"><g transform="translate(51.369558, 195.44019)"><g><path d="M 1.265625 0 L 1.265625 -23.5625 L 7.078125 -23.5625 L 7.078125 0 Z M 1.265625 0 "/></g></g></g><g fill="#000000" fill-opacity="1"><g transform="translate(59.722633, 195.44019)"><g><path d="M 1.265625 0 L 1.265625 -23.5625 L 7.078125 -23.5625 L 7.078125 0 Z M 1.265625 0 "/></g></g></g><g fill="#000000" fill-opacity="1"><g transform="translate(68.075708, 195.44019)"><g/></g></g><g fill="#000000" fill-opacity="1"><g transform="translate(76.397027, 195.44019)"><g><path d="M 9.71875 0 L 9.71875 -17.984375 L 0.21875 -17.984375 L 0.21875 -22.609375 L 25.578125 -22.609375 L 25.578125 -17.984375 L 16.109375 -17.984375 L 16.109375 0 Z M 9.71875 0 "/></g></g></g><g fill="#000000" fill-opacity="1"><g transform="translate(102.186748, 195.44019)"><g><path d="M 1.265625 0 L 1.265625 -23.5625 L 7.078125 -23.5625 L 7.078125 -12.234375 L 7.109375 -12.234375 C 7.878906 -13.648438 9.007812 -14.769531 10.5 -15.59375 C 11.988281 -16.414062 13.796875 -16.828125 15.921875 -16.828125 C 17.691406 -16.828125 19.226562 -16.515625 20.53125 -15.890625 C 21.832031 -15.273438 22.835938 -14.390625 23.546875 -13.234375 C 24.265625 -12.078125 24.613281 -10.691406 24.59375 -9.078125 L 24.59375 0 L 18.78125 0 L 18.78125 -8.484375 C 18.78125 -9.984375 18.316406 -11.15625 17.390625 -12 C 16.472656 -12.851562 15.164062 -13.28125 13.46875 -13.28125 C 11.476562 -13.28125 9.910156 -12.757812 8.765625 -11.71875 C 7.617188 -10.6875 7.046875 -9.238281 7.046875 -7.375 L 7.046875 0 Z M 1.265625 0 "/></g></g></g><g fill="#000000" fill-opacity="1"><g transform="translate(127.817667, 195.44019)"><g><path d="M 4.359375 -18.484375 C 3.378906 -18.484375 2.578125 -18.765625 1.953125 -19.328125 C 1.328125 -19.890625 1.015625 -20.613281 1.015625 -21.5 C 1.015625 -22.394531 1.328125 -23.117188 1.953125 -23.671875 C 2.578125 -24.234375 3.378906 -24.515625 4.359375 -24.515625 C 5.347656 -24.515625 6.15625 -24.234375 6.78125 -23.671875 C 7.40625 -23.117188 7.71875 -22.394531 7.71875 -21.5 C 7.71875 -20.613281 7.40625 -19.890625 6.78125 -19.328125 C 6.15625 -18.765625 5.347656 -18.484375 4.359375 -18.484375 Z M 1.46875 0 L 1.46875 -16.265625 L 7.28125 -16.265625 L 7.28125 0 Z M 1.46875 0 "/></g></g></g><g fill="#000000" fill-opacity="1"><g transform="translate(136.551868, 195.44019)"><g><path d="M 15.921875 -16.828125 C 17.691406 -16.828125 19.226562 -16.515625 20.53125 -15.890625 C 21.832031 -15.273438 22.835938 -14.390625 23.546875 -13.234375 C 24.265625 -12.078125 24.613281 -10.691406 24.59375 -9.078125 L 24.59375 0 L 18.78125 0 L 18.78125 -8.484375 C 18.78125 -9.984375 18.316406 -11.15625 17.390625 -12 C 16.472656 -12.851562 15.164062 -13.28125 13.46875 -13.28125 C 11.476562 -13.28125 9.910156 -12.757812 8.765625 -11.71875 C 7.617188 -10.6875 7.046875 -9.238281 7.046875 -7.375 L 7.046875 0 L 1.265625 0 L 1.265625 -16.265625 L 6.328125 -16.265625 L 6.921875 -12.234375 L 6.953125 -12.234375 C 7.691406 -13.648438 8.835938 -14.769531 10.390625 -15.59375 C 11.953125 -16.414062 13.796875 -16.828125 15.921875 -16.828125 Z M 15.921875 -16.828125 "/></g></g></g><g fill="#000000" fill-opacity="1"><g transform="translate(162.182787, 195.44019)"><g><path d="M 11.15625 7.25 C 8.65625 7.25 6.367188 7.015625 4.296875 6.546875 C 2.234375 6.078125 0.597656 5.453125 -0.609375 4.671875 L 1.5 0.765625 C 2.65625 1.503906 4.070312 2.09375 5.75 2.53125 C 7.425781 2.976562 9.148438 3.203125 10.921875 3.203125 C 13.660156 3.203125 15.820312 2.710938 17.40625 1.734375 C 19 0.765625 19.796875 -0.550781 19.796875 -2.21875 L 19.796875 -3.328125 L 19.765625 -3.328125 C 19.296875 -2.628906 18.617188 -2.019531 17.734375 -1.5 C 16.859375 -0.988281 15.835938 -0.582031 14.671875 -0.28125 C 13.503906 0.0078125 12.265625 0.15625 10.953125 0.15625 C 8.921875 0.15625 7.140625 -0.191406 5.609375 -0.890625 C 4.085938 -1.585938 2.90625 -2.566406 2.0625 -3.828125 C 1.21875 -5.085938 0.796875 -6.566406 0.796875 -8.265625 C 0.796875 -9.992188 1.222656 -11.5 2.078125 -12.78125 C 2.929688 -14.0625 4.128906 -15.054688 5.671875 -15.765625 C 7.222656 -16.472656 9.050781 -16.828125 11.15625 -16.828125 C 12.488281 -16.828125 13.722656 -16.632812 14.859375 -16.25 C 16.003906 -15.875 17.003906 -15.347656 17.859375 -14.671875 C 18.722656 -13.992188 19.367188 -13.203125 19.796875 -12.296875 L 19.828125 -12.296875 L 20.578125 -16.296875 L 25.609375 -16.296875 L 25.609375 -2.3125 C 25.609375 -0.363281 25.019531 1.328125 23.84375 2.765625 C 22.664062 4.203125 20.992188 5.304688 18.828125 6.078125 C 16.671875 6.859375 14.113281 7.25 11.15625 7.25 Z M 13.28125 -3.296875 C 15.289062 -3.296875 16.914062 -3.738281 18.15625 -4.625 C 19.394531 -5.519531 20.015625 -6.675781 20.015625 -8.09375 C 20.015625 -9.5625 19.394531 -10.738281 18.15625 -11.625 C 16.914062 -12.507812 15.289062 -12.953125 13.28125 -12.953125 C 11.289062 -12.953125 9.679688 -12.507812 8.453125 -11.625 C 7.222656 -10.738281 6.609375 -9.5625 6.609375 -8.09375 C 6.609375 -7.144531 6.890625 -6.3125 7.453125 -5.59375 C 8.015625 -4.875 8.796875 -4.3125 9.796875 -3.90625 C 10.804688 -3.5 11.96875 -3.296875 13.28125 -3.296875 Z M 13.28125 -3.296875 "/></g></g></g><g fill="#000000" fill-opacity="1"><g transform="translate(189.052375, 195.44019)"><g><path d="M 12.671875 0.578125 C 11.023438 0.578125 9.410156 0.414062 7.828125 0.09375 C 6.253906 -0.21875 4.835938 -0.648438 3.578125 -1.203125 C 2.316406 -1.753906 1.316406 -2.378906 0.578125 -3.078125 L 2.484375 -6 C 3.066406 -5.382812 3.878906 -4.835938 4.921875 -4.359375 C 5.960938 -3.890625 7.125 -3.515625 8.40625 -3.234375 C 9.6875 -2.960938 11.003906 -2.828125 12.359375 -2.828125 C 14.179688 -2.828125 15.582031 -2.992188 16.5625 -3.328125 C 17.550781 -3.671875 18.046875 -4.117188 18.046875 -4.671875 C 18.046875 -5.160156 17.707031 -5.523438 17.03125 -5.765625 C 16.351562 -6.003906 15.359375 -6.191406 14.046875 -6.328125 L 9.8125 -6.671875 C 7.3125 -6.859375 5.382812 -7.300781 4.03125 -8 C 2.675781 -8.695312 2 -9.78125 2 -11.25 C 2 -12.5 2.429688 -13.535156 3.296875 -14.359375 C 4.171875 -15.179688 5.375 -15.796875 6.90625 -16.203125 C 8.445312 -16.617188 10.191406 -16.828125 12.140625 -16.828125 C 13.953125 -16.828125 15.695312 -16.582031 17.375 -16.09375 C 19.050781 -15.613281 20.46875 -14.941406 21.625 -14.078125 L 19.890625 -11.34375 C 19.035156 -12.019531 17.894531 -12.570312 16.46875 -13 C 15.039062 -13.4375 13.566406 -13.65625 12.046875 -13.65625 C 10.617188 -13.65625 9.421875 -13.5 8.453125 -13.1875 C 7.492188 -12.882812 7.015625 -12.457031 7.015625 -11.90625 C 7.015625 -11.445312 7.3125 -11.109375 7.90625 -10.890625 C 8.5 -10.679688 9.378906 -10.523438 10.546875 -10.421875 L 14.796875 -10.03125 C 17.492188 -9.820312 19.566406 -9.351562 21.015625 -8.625 C 22.460938 -7.894531 23.1875 -6.722656 23.1875 -5.109375 C 23.1875 -3.835938 22.726562 -2.78125 21.8125 -1.9375 C 20.90625 -1.09375 19.65625 -0.460938 18.0625 -0.046875 C 16.476562 0.367188 14.679688 0.578125 12.671875 0.578125 Z M 12.671875 0.578125 "/></g></g></g><g fill="#000000" fill-opacity="1"><g transform="translate(212.777653, 195.44019)"><g/></g></g><g fill="#000000" fill-opacity="1"><g transform="translate(221.098973, 195.44019)"><g><path d="M 15.953125 0.640625 C 13.765625 0.640625 11.757812 0.359375 9.9375 -0.203125 C 8.113281 -0.765625 6.546875 -1.5625 5.234375 -2.59375 C 3.921875 -3.632812 2.90625 -4.863281 2.1875 -6.28125 C 1.46875 -7.707031 1.109375 -9.273438 1.109375 -10.984375 C 1.109375 -12.804688 1.484375 -14.46875 2.234375 -15.96875 C 2.984375 -17.476562 4.050781 -18.769531 5.4375 -19.84375 C 6.832031 -20.925781 8.488281 -21.765625 10.40625 -22.359375 C 12.320312 -22.953125 14.429688 -23.25 16.734375 -23.25 C 19.003906 -23.25 21.085938 -22.945312 22.984375 -22.34375 C 24.878906 -21.738281 26.460938 -20.898438 27.734375 -19.828125 C 29.003906 -18.765625 29.804688 -17.523438 30.140625 -16.109375 L 24.203125 -15 C 23.953125 -15.738281 23.457031 -16.394531 22.71875 -16.96875 C 21.988281 -17.539062 21.101562 -17.984375 20.0625 -18.296875 C 19.03125 -18.617188 17.921875 -18.78125 16.734375 -18.78125 C 14.941406 -18.78125 13.347656 -18.460938 11.953125 -17.828125 C 10.566406 -17.191406 9.484375 -16.300781 8.703125 -15.15625 C 7.921875 -14.007812 7.53125 -12.675781 7.53125 -11.15625 C 7.53125 -9.6875 7.957031 -8.390625 8.8125 -7.265625 C 9.664062 -6.148438 10.859375 -5.273438 12.390625 -4.640625 C 13.929688 -4.003906 15.695312 -3.6875 17.6875 -3.6875 C 19.382812 -3.6875 20.910156 -3.929688 22.265625 -4.421875 C 23.617188 -4.921875 24.703125 -5.597656 25.515625 -6.453125 C 26.335938 -7.316406 26.78125 -8.289062 26.84375 -9.375 L 12.640625 -9.375 L 12.640625 -12.828125 L 33 -12.828125 L 33 0 L 27.921875 0 L 27.609375 -4.21875 L 27.578125 -4.21875 C 26.859375 -3.25 25.90625 -2.398438 24.71875 -1.671875 C 23.53125 -0.941406 22.191406 -0.375 20.703125 0.03125 C 19.222656 0.4375 17.640625 0.640625 15.953125 0.640625 Z M 15.953125 0.640625 "/></g></g></g><g fill="#000000" fill-opacity="1"><g transform="translate(255.210001, 195.44019)"><g><path d="M 13.71875 -16.828125 C 15.519531 -16.828125 16.992188 -16.234375 18.140625 -15.046875 C 19.285156 -13.867188 19.929688 -12.242188 20.078125 -10.171875 L 14.796875 -9.046875 C 14.710938 -10.316406 14.363281 -11.3125 13.75 -12.03125 C 13.132812 -12.757812 12.363281 -13.125 11.4375 -13.125 C 10.082031 -13.125 9.015625 -12.585938 8.234375 -11.515625 C 7.460938 -10.441406 7.078125 -8.992188 7.078125 -7.171875 L 7.078125 0 L 1.265625 0 L 1.265625 -16.265625 L 6.15625 -16.265625 L 6.921875 -12.578125 L 6.953125 -12.578125 C 7.566406 -13.890625 8.476562 -14.925781 9.6875 -15.6875 C 10.894531 -16.445312 12.238281 -16.828125 13.71875 -16.828125 Z M 13.71875 -16.828125 "/></g></g></g><g fill="#000000" fill-opacity="1"><g transform="translate(275.536878, 195.44019)"><g><path d="M 14.296875 0.578125 C 11.648438 0.578125 9.304688 0.210938 7.265625 -0.515625 C 5.234375 -1.253906 3.644531 -2.285156 2.5 -3.609375 C 1.363281 -4.929688 0.796875 -6.460938 0.796875 -8.203125 C 0.796875 -9.890625 1.316406 -11.378906 2.359375 -12.671875 C 3.410156 -13.960938 4.867188 -14.976562 6.734375 -15.71875 C 8.597656 -16.457031 10.738281 -16.828125 13.15625 -16.828125 C 15.519531 -16.828125 17.597656 -16.460938 19.390625 -15.734375 C 21.179688 -15.003906 22.578125 -13.992188 23.578125 -12.703125 C 24.585938 -11.410156 25.09375 -9.894531 25.09375 -8.15625 C 25.09375 -7.96875 25.082031 -7.726562 25.0625 -7.4375 C 25.039062 -7.15625 25 -6.898438 24.9375 -6.671875 L 6.984375 -6.671875 C 7.222656 -5.890625 7.71875 -5.226562 8.46875 -4.6875 C 9.21875 -4.144531 10.132812 -3.734375 11.21875 -3.453125 C 12.3125 -3.179688 13.484375 -3.046875 14.734375 -3.046875 C 15.921875 -3.046875 17.070312 -3.140625 18.1875 -3.328125 C 19.300781 -3.523438 20.316406 -3.789062 21.234375 -4.125 C 22.148438 -4.46875 22.894531 -4.847656 23.46875 -5.265625 L 25.3125 -2.34375 C 24.570312 -1.78125 23.625 -1.273438 22.46875 -0.828125 C 21.320312 -0.378906 20.046875 -0.0351562 18.640625 0.203125 C 17.242188 0.453125 15.796875 0.578125 14.296875 0.578125 Z M 6.859375 -9.5 L 19.21875 -9.5 C 19.15625 -10.28125 18.84375 -10.960938 18.28125 -11.546875 C 17.71875 -12.128906 16.984375 -12.578125 16.078125 -12.890625 C 15.179688 -13.210938 14.175781 -13.375 13.0625 -13.375 C 11.957031 -13.375 10.953125 -13.207031 10.046875 -12.875 C 9.148438 -12.550781 8.421875 -12.097656 7.859375 -11.515625 C 7.296875 -10.929688 6.960938 -10.257812 6.859375 -9.5 Z M 6.859375 -9.5 "/></g></g></g><g fill="#000000" fill-opacity="1"><g transform="translate(301.99356, 195.44019)"><g><path d="M 14.296875 0.578125 C 11.648438 0.578125 9.304688 0.210938 7.265625 -0.515625 C 5.234375 -1.253906 3.644531 -2.285156 2.5 -3.609375 C 1.363281 -4.929688 0.796875 -6.460938 0.796875 -8.203125 C 0.796875 -9.890625 1.316406 -11.378906 2.359375 -12.671875 C 3.410156 -13.960938 4.867188 -14.976562 6.734375 -15.71875 C 8.597656 -16.457031 10.738281 -16.828125 13.15625 -16.828125 C 15.519531 -16.828125 17.597656 -16.460938 19.390625 -15.734375 C 21.179688 -15.003906 22.578125 -13.992188 23.578125 -12.703125 C 24.585938 -11.410156 25.09375 -9.894531 25.09375 -8.15625 C 25.09375 -7.96875 25.082031 -7.726562 25.0625 -7.4375 C 25.039062 -7.15625 25 -6.898438 24.9375 -6.671875 L 6.984375 -6.671875 C 7.222656 -5.890625 7.71875 -5.226562 8.46875 -4.6875 C 9.21875 -4.144531 10.132812 -3.734375 11.21875 -3.453125 C 12.3125 -3.179688 13.484375 -3.046875 14.734375 -3.046875 C 15.921875 -3.046875 17.070312 -3.140625 18.1875 -3.328125 C 19.300781 -3.523438 20.316406 -3.789062 21.234375 -4.125 C 22.148438 -4.46875 22.894531 -4.847656 23.46875 -5.265625 L 25.3125 -2.34375 C 24.570312 -1.78125 23.625 -1.273438 22.46875 -0.828125 C 21.320312 -0.378906 20.046875 -0.0351562 18.640625 0.203125 C 17.242188 0.453125 15.796875 0.578125 14.296875 0.578125 Z M 6.859375 -9.5 L 19.21875 -9.5 C 19.15625 -10.28125 18.84375 -10.960938 18.28125 -11.546875 C 17.71875 -12.128906 16.984375 -12.578125 16.078125 -12.890625 C 15.179688 -13.210938 14.175781 -13.375 13.0625 -13.375 C 11.957031 -13.375 10.953125 -13.207031 10.046875 -12.875 C 9.148438 -12.550781 8.421875 -12.097656 7.859375 -11.515625 C 7.296875 -10.929688 6.960938 -10.257812 6.859375 -9.5 Z M 6.859375 -9.5 "/></g></g></g><g fill="#000000" fill-opacity="1"><g transform="translate(328.450242, 195.44019)"><g><path d="M 15.921875 -16.828125 C 17.691406 -16.828125 19.226562 -16.515625 20.53125 -15.890625 C 21.832031 -15.273438 22.835938 -14.390625 23.546875 -13.234375 C 24.265625 -12.078125 24.613281 -10.691406 24.59375 -9.078125 L 24.59375 0 L 18.78125 0 L 18.78125 -8.484375 C 18.78125 -9.984375 18.316406 -11.15625 17.390625 -12 C 16.472656 -12.851562 15.164062 -13.28125 13.46875 -13.28125 C 11.476562 -13.28125 9.910156 -12.757812 8.765625 -11.71875 C 7.617188 -10.6875 7.046875 -9.238281 7.046875 -7.375 L 7.046875 0 L 1.265625 0 L 1.265625 -16.265625 L 6.328125 -16.265625 L 6.921875 -12.234375 L 6.953125 -12.234375 C 7.691406 -13.648438 8.835938 -14.769531 10.390625 -15.59375 C 11.953125 -16.414062 13.796875 -16.828125 15.921875 -16.828125 Z M 15.921875 -16.828125 "/></g></g></g></svg>