<svg xmlns="http://www.w3.org/2000/svg" xmlns:xlink="http://www.w3.org/1999/xlink" width="500" zoomAndPan="magnify" viewBox="0 0 375 374.999991" height="500" preserveAspectRatio="xMidYMid meet" version="1.0"><defs><g/></defs><g fill="#000000" fill-opacity="1"><g transform="translate(137.538804, 195.44019)"><g><path d="M 0.0625 0 L 11.625 -22.609375 L 19.03125 -22.609375 L 30.375 0 L 23.734375 0 L 21.5625 -4.453125 L 8.859375 -4.453125 L 6.703125 0 Z M 10.296875 -8.296875 L 20.140625 -8.296875 L 15.28125 -18.484375 L 15.21875 -18.484375 Z M 10.296875 -8.296875 "/></g></g></g><g fill="#000000" fill-opacity="1"><g transform="translate(167.997363, 195.44019)"><g><path d="M 4.15625 0.34375 C 3.1875 0.34375 2.390625 0.0703125 1.765625 -0.46875 C 1.140625 -1.019531 0.828125 -1.734375 0.828125 -2.609375 C 0.828125 -3.472656 1.140625 -4.175781 1.765625 -4.71875 C 2.390625 -5.257812 3.1875 -5.53125 4.15625 -5.53125 C 5.15625 -5.53125 5.96875 -5.257812 6.59375 -4.71875 C 7.21875 -4.175781 7.53125 -3.472656 7.53125 -2.609375 C 7.53125 -1.734375 7.21875 -1.019531 6.59375 -0.46875 C 5.96875 0.0703125 5.15625 0.34375 4.15625 0.34375 Z M 4.15625 0.34375 "/></g></g></g><g fill="#000000" fill-opacity="1"><g transform="translate(173.491963, 195.44019)"><g><path d="M 9.71875 0 L 9.71875 -17.984375 L 0.21875 -17.984375 L 0.21875 -22.609375 L 25.578125 -22.609375 L 25.578125 -17.984375 L 16.109375 -17.984375 L 16.109375 0 Z M 9.71875 0 "/></g></g></g><g fill="#000000" fill-opacity="1"><g transform="translate(196.42321, 195.44019)"><g><path d="M 4.15625 0.34375 C 3.1875 0.34375 2.390625 0.0703125 1.765625 -0.46875 C 1.140625 -1.019531 0.828125 -1.734375 0.828125 -2.609375 C 0.828125 -3.472656 1.140625 -4.175781 1.765625 -4.71875 C 2.390625 -5.257812 3.1875 -5.53125 4.15625 -5.53125 C 5.15625 -5.53125 5.96875 -5.257812 6.59375 -4.71875 C 7.21875 -4.175781 7.53125 -3.472656 7.53125 -2.609375 C 7.53125 -1.734375 7.21875 -1.019531 6.59375 -0.46875 C 5.96875 0.0703125 5.15625 0.34375 4.15625 0.34375 Z M 4.15625 0.34375 "/></g></g></g><g fill="#000000" fill-opacity="1"><g transform="translate(203.347047, 195.44019)"><g><path d="M 15.953125 0.640625 C 13.765625 0.640625 11.757812 0.359375 9.9375 -0.203125 C 8.113281 -0.765625 6.546875 -1.5625 5.234375 -2.59375 C 3.921875 -3.632812 2.90625 -4.863281 2.1875 -6.28125 C 1.46875 -7.707031 1.109375 -9.273438 1.109375 -10.984375 C 1.109375 -12.804688 1.484375 -14.46875 2.234375 -15.96875 C 2.984375 -17.476562 4.050781 -18.769531 5.4375 -19.84375 C 6.832031 -20.925781 8.488281 -21.765625 10.40625 -22.359375 C 12.320312 -22.953125 14.429688 -23.25 16.734375 -23.25 C 19.003906 -23.25 21.085938 -22.945312 22.984375 -22.34375 C 24.878906 -21.738281 26.460938 -20.898438 27.734375 -19.828125 C 29.003906 -18.765625 29.804688 -17.523438 30.140625 -16.109375 L 24.203125 -15 C 23.953125 -15.738281 23.457031 -16.394531 22.71875 -16.96875 C 21.988281 -17.539062 21.101562 -17.984375 20.0625 -18.296875 C 19.03125 -18.617188 17.921875 -18.78125 16.734375 -18.78125 C 14.941406 -18.78125 13.347656 -18.460938 11.953125 -17.828125 C 10.566406 -17.191406 9.484375 -16.300781 8.703125 -15.15625 C 7.921875 -14.007812 7.53125 -12.675781 7.53125 -11.15625 C 7.53125 -9.6875 7.957031 -8.390625 8.8125 -7.265625 C 9.664062 -6.148438 10.859375 -5.273438 12.390625 -4.640625 C 13.929688 -4.003906 15.695312 -3.6875 17.6875 -3.6875 C 19.382812 -3.6875 20.910156 -3.929688 22.265625 -4.421875 C 23.617188 -4.921875 24.703125 -5.597656 25.515625 -6.453125 C 26.335938 -7.316406 26.78125 -8.289062 26.84375 -9.375 L 12.640625 -9.375 L 12.640625 -12.828125 L 33 -12.828125 L 33 0 L 27.921875 0 L 27.609375 -4.21875 L 27.578125 -4.21875 C 26.859375 -3.25 25.90625 -2.398438 24.71875 -1.671875 C 23.53125 -0.941406 22.191406 -0.375 20.703125 0.03125 C 19.222656 0.4375 17.640625 0.640625 15.953125 0.640625 Z M 15.953125 0.640625 "/></g></g></g></svg>